<svg id="visual" viewBox="0 0 960 540" width="960" height="540" xmlns="http://www.w3.org/2000/svg" xmlns:xlink="http://www.w3.org/1999/xlink" version="1.1"><rect width="960" height="540" fill="#003c3c"></rect><g><g transform="translate(134 77)"><path d="M0 -47.6L41.2 -23.8L41.2 23.8L0 47.6L-41.2 23.8L-41.2 -23.8Z" fill="none" stroke="#002828" stroke-width="3"></path></g><g transform="translate(43 32)"><path d="M0 -43L37.2 -21.5L37.2 21.5L0 43L-37.2 21.5L-37.2 -21.5Z" fill="none" stroke="#002828" stroke-width="3"></path></g><g transform="translate(497 398)"><path d="M0 -37L32 -18.5L32 18.5L0 37L-32 18.5L-32 -18.5Z" stroke="#002828" fill="none" stroke-width="3"></path></g><g transform="translate(75 341)"><path d="M0 -37L32 -18.5L32 18.5L0 37L-32 18.5L-32 -18.5Z" stroke="#002828" fill="none" stroke-width="3"></path></g><g transform="translate(818 171)"><path d="M0 -26L22.5 -13L22.5 13L0 26L-22.5 13L-22.5 -13Z" stroke="#002828" fill="none" stroke-width="3"></path></g><g transform="translate(596 115)"><path d="M0 -18L15.6 -9L15.6 9L0 18L-15.6 9L-15.6 -9Z" stroke="#002828" fill="none" stroke-width="3"></path></g><g transform="translate(713 81)"><path d="M0 -22L19.1 -11L19.1 11L0 22L-19.1 11L-19.1 -11Z" stroke="#002828" fill="none" stroke-width="3"></path></g><g transform="translate(279 457)"><path d="M0 -33L28.6 -16.5L28.6 16.5L0 33L-28.6 16.5L-28.6 -16.5Z" stroke="#002828" fill="none" stroke-width="3"></path></g><g transform="translate(371 348)"><path d="M0 -11L9.5 -5.5L9.5 5.5L0 11L-9.5 5.5L-9.5 -5.5Z" stroke="#002828" fill="none" stroke-width="3"></path></g><g transform="translate(856 537)"><path d="M0 -32L27.7 -16L27.7 16L0 32L-27.7 16L-27.7 -16Z" stroke="#002828" fill="none" stroke-width="3"></path></g><g transform="translate(302 262)"><path d="M0 -5L4.3 -2.5L4.3 2.5L0 5L-4.3 2.5L-4.3 -2.5Z" stroke="#002828" fill="none" stroke-width="3"></path></g><g transform="translate(296 63)"><path d="M0 -42L36.4 -21L36.4 21L0 42L-36.4 21L-36.4 -21Z" stroke="#002828" fill="none" stroke-width="3"></path></g><g transform="translate(175 178)"><path d="M0 -41L35.5 -20.5L35.5 20.5L0 41L-35.5 20.5L-35.5 -20.5Z" stroke="#002828" fill="none" stroke-width="3"></path></g><g transform="translate(765 464)"><path d="M0 -6L5.2 -3L5.2 3L0 6L-5.2 3L-5.2 -3Z" stroke="#002828" fill="none" stroke-width="3"></path></g><g transform="translate(86 239)"><path d="M0 -17L14.7 -8.5L14.7 8.5L0 17L-14.7 8.5L-14.7 -8.5Z" stroke="#002828" fill="none" stroke-width="3"></path></g><g transform="translate(443 146)"><path d="M0 -35L30.3 -17.5L30.3 17.5L0 35L-30.3 17.5L-30.3 -17.5Z" stroke="#002828" fill="none" stroke-width="3"></path></g><g transform="translate(635 219)"><path d="M0 -19L16.5 -9.5L16.5 9.5L0 19L-16.5 9.5L-16.5 -9.5Z" stroke="#002828" fill="none" stroke-width="3"></path></g><g transform="translate(203 329)"><path d="M0 -43L37.2 -21.5L37.2 21.5L0 43L-37.2 21.5L-37.2 -21.5Z" stroke="#002828" fill="none" stroke-width="3"></path></g><g transform="translate(664 362)"><path d="M0 -14L12.1 -7L12.1 7L0 14L-12.1 7L-12.1 -7Z" stroke="#002828" fill="none" stroke-width="3"></path></g><g transform="translate(165 446)"><path d="M0 -9L7.8 -4.5L7.8 4.5L0 9L-7.8 4.5L-7.8 -4.5Z" stroke="#002828" fill="none" stroke-width="3"></path></g><g transform="translate(958 51)"><path d="M0 -28L24.2 -14L24.2 14L0 28L-24.2 14L-24.2 -14Z" stroke="#002828" fill="none" stroke-width="3"></path></g><g transform="translate(896 403)"><path d="M0 -9L7.8 -4.5L7.8 4.5L0 9L-7.8 4.5L-7.8 -4.5Z" stroke="#002828" fill="none" stroke-width="3"></path></g><g transform="translate(766 360)"><path d="M0 -41L35.5 -20.5L35.5 20.5L0 41L-35.5 20.5L-35.5 -20.5Z" stroke="#002828" fill="none" stroke-width="3"></path></g><g transform="translate(52 489)"><path d="M0 -10L8.7 -5L8.7 5L0 10L-8.7 5L-8.7 -5Z" stroke="#002828" fill="none" stroke-width="3"></path></g><g transform="translate(383 519)"><path d="M0 -39L33.8 -19.5L33.8 19.5L0 39L-33.8 19.5L-33.8 -19.5Z" stroke="#002828" fill="none" stroke-width="3"></path></g><g transform="translate(667 507)"><path d="M0 -27L23.4 -13.5L23.4 13.5L0 27L-23.4 13.5L-23.4 -13.5Z" stroke="#002828" fill="none" stroke-width="3"></path></g><g transform="translate(306 167)"><path d="M0 -8L6.9 -4L6.9 4L0 8L-6.9 4L-6.9 -4Z" stroke="#002828" fill="none" stroke-width="3"></path></g><g transform="translate(932 236)"><path d="M0 -30L26 -15L26 15L0 30L-26 15L-26 -15Z" stroke="#002828" fill="none" stroke-width="3"></path></g><g transform="translate(436 32)"><path d="M0 -14L12.1 -7L12.1 7L0 14L-12.1 7L-12.1 -7Z" stroke="#002828" fill="none" stroke-width="3"></path></g><g transform="translate(832 8)"><path d="M0 -36L31.2 -18L31.2 18L0 36L-31.2 18L-31.2 -18Z" stroke="#002828" fill="none" stroke-width="3"></path></g><g transform="translate(522 297)"><path d="M0 -46L39.8 -23L39.8 23L0 46L-39.8 23L-39.8 -23Z" stroke="#002828" fill="none" stroke-width="3"></path></g><g transform="translate(624 16)"><path d="M0 -9L7.8 -4.5L7.8 4.5L0 9L-7.8 4.5L-7.8 -4.5Z" stroke="#002828" fill="none" stroke-width="3"></path></g><g transform="translate(533 506)"><path d="M0 -28L24.2 -14L24.2 14L0 28L-24.2 14L-24.2 -14Z" stroke="#002828" fill="none" stroke-width="3"></path></g><g transform="translate(947 502)"><path d="M0 -24L20.8 -12L20.8 12L0 24L-20.8 12L-20.8 -12Z" stroke="#002828" fill="none" stroke-width="3"></path></g><g transform="translate(225 537)"><path d="M0 -33L28.6 -16.5L28.6 16.5L0 33L-28.6 16.5L-28.6 -16.5Z" stroke="#002828" fill="none" stroke-width="3"></path></g><g transform="translate(10 165)"><path d="M0 -5L4.3 -2.5L4.3 2.5L0 5L-4.3 2.5L-4.3 -2.5Z" stroke="#002828" fill="none" stroke-width="3"></path></g><g transform="translate(732 235)"><path d="M0 -19L16.5 -9.5L16.5 9.5L0 19L-16.5 9.5L-16.5 -9.5Z" stroke="#002828" fill="none" stroke-width="3"></path></g><g transform="translate(822 272)"><path d="M0 -10L8.7 -5L8.7 5L0 10L-8.7 5L-8.7 -5Z" stroke="#002828" fill="none" stroke-width="3"></path></g><g transform="translate(404 250)"><path d="M0 -40L34.6 -20L34.6 20L0 40L-34.6 20L-34.6 -20Z" stroke="#002828" fill="none" stroke-width="3"></path></g><g transform="translate(591 426)"><path d="M0 -39L33.8 -19.5L33.8 19.5L0 39L-33.8 19.5L-33.8 -19.5Z" stroke="#002828" fill="none" stroke-width="3"></path></g><g transform="translate(211 18)"><path d="M0 -17L14.7 -8.5L14.7 8.5L0 17L-14.7 8.5L-14.7 -8.5Z" stroke="#002828" fill="none" stroke-width="3"></path></g></g></svg>