<svg id="visual" viewBox="0 0 960 540" width="960" height="540" xmlns="http://www.w3.org/2000/svg" xmlns:xlink="http://www.w3.org/1999/xlink" version="1.1"><rect width="960" height="540" fill="#003c3c"></rect><g><g transform="translate(703 343)"><path d="M0 -55.9L48.4 -28L48.4 28L0 55.9L-48.4 28L-48.4 -28Z" fill="none" stroke="#002828" stroke-width="3"></path></g><g transform="translate(852 513)"><path d="M0 -47L40.7 -23.5L40.7 23.5L0 47L-40.7 23.5L-40.7 -23.5Z" fill="none" stroke="#002828" stroke-width="3"></path></g><g transform="translate(544 199)"><path d="M0 -51L44.2 -25.5L44.2 25.5L0 51L-44.2 25.5L-44.2 -25.5Z" stroke="#002828" fill="none" stroke-width="3"></path></g><g transform="translate(305 190)"><path d="M0 -41L35.5 -20.5L35.5 20.5L0 41L-35.5 20.5L-35.5 -20.5Z" stroke="#002828" fill="none" stroke-width="3"></path></g><g transform="translate(502 22)"><path d="M0 -49L42.4 -24.5L42.4 24.5L0 49L-42.4 24.5L-42.4 -24.5Z" stroke="#002828" fill="none" stroke-width="3"></path></g><g transform="translate(892 362)"><path d="M0 -40L34.6 -20L34.6 20L0 40L-34.6 20L-34.6 -20Z" stroke="#002828" fill="none" stroke-width="3"></path></g><g transform="translate(138 193)"><path d="M0 -46L39.8 -23L39.8 23L0 46L-39.8 23L-39.8 -23Z" stroke="#002828" fill="none" stroke-width="3"></path></g><g transform="translate(390 464)"><path d="M0 -48L41.6 -24L41.6 24L0 48L-41.6 24L-41.6 -24Z" stroke="#002828" fill="none" stroke-width="3"></path></g><g transform="translate(873 11)"><path d="M0 -35L30.3 -17.5L30.3 17.5L0 35L-30.3 17.5L-30.3 -17.5Z" stroke="#002828" fill="none" stroke-width="3"></path></g><g transform="translate(7 368)"><path d="M0 -40L34.6 -20L34.6 20L0 40L-34.6 20L-34.6 -20Z" stroke="#002828" fill="none" stroke-width="3"></path></g><g transform="translate(611 484)"><path d="M0 -39L33.8 -19.5L33.8 19.5L0 39L-33.8 19.5L-33.8 -19.5Z" stroke="#002828" fill="none" stroke-width="3"></path></g><g transform="translate(683 94)"><path d="M0 -45L39 -22.5L39 22.5L0 45L-39 22.5L-39 -22.5Z" stroke="#002828" fill="none" stroke-width="3"></path></g><g transform="translate(60 513)"><path d="M0 -47L40.7 -23.5L40.7 23.5L0 47L-40.7 23.5L-40.7 -23.5Z" stroke="#002828" fill="none" stroke-width="3"></path></g><g transform="translate(387 93)"><path d="M0 -52L45 -26L45 26L0 52L-45 26L-45 -26Z" stroke="#002828" fill="none" stroke-width="3"></path></g></g></svg>