<svg id="visual" viewBox="0 0 960 540" width="960" height="540" xmlns="http://www.w3.org/2000/svg" xmlns:xlink="http://www.w3.org/1999/xlink" version="1.1"><path d="M0 141L51 141L51 104L101 104L101 77L152 77L152 104L202 104L202 131L253 131L253 125L303 125L303 104L354 104L354 77L404 77L404 174L455 174L455 120L505 120L505 141L556 141L556 174L606 174L606 125L657 125L657 87L707 87L707 125L758 125L758 174L808 174L808 98L859 98L859 104L909 104L909 147L960 147L960 93L960 0L960 0L909 0L909 0L859 0L859 0L808 0L808 0L758 0L758 0L707 0L707 0L657 0L657 0L606 0L606 0L556 0L556 0L505 0L505 0L455 0L455 0L404 0L404 0L354 0L354 0L303 0L303 0L253 0L253 0L202 0L202 0L152 0L152 0L101 0L101 0L51 0L51 0L0 0Z" fill="#9b9bcf"></path><path d="M0 158L51 158L51 136L101 136L101 120L152 120L152 131L202 131L202 152L253 152L253 158L303 158L303 136L354 136L354 125L404 125L404 206L455 206L455 147L505 147L505 174L556 174L556 195L606 195L606 152L657 152L657 104L707 104L707 158L758 158L758 206L808 206L808 147L859 147L859 141L909 141L909 179L960 179L960 125L960 91L960 145L909 145L909 102L859 102L859 96L808 96L808 172L758 172L758 123L707 123L707 85L657 85L657 123L606 123L606 172L556 172L556 139L505 139L505 118L455 118L455 172L404 172L404 75L354 75L354 102L303 102L303 123L253 123L253 129L202 129L202 102L152 102L152 75L101 75L101 102L51 102L51 139L0 139Z" fill="#7f90c0"></path><path d="M0 228L51 228L51 266L101 266L101 233L152 233L152 239L202 239L202 228L253 228L253 266L303 266L303 314L354 314L354 255L404 255L404 314L455 314L455 276L505 276L505 276L556 276L556 293L606 293L606 325L657 325L657 266L707 266L707 276L758 276L758 336L808 336L808 233L859 233L859 239L909 239L909 233L960 233L960 276L960 123L960 177L909 177L909 139L859 139L859 145L808 145L808 204L758 204L758 156L707 156L707 102L657 102L657 150L606 150L606 193L556 193L556 172L505 172L505 145L455 145L455 204L404 204L404 123L354 123L354 134L303 134L303 156L253 156L253 150L202 150L202 129L152 129L152 118L101 118L101 134L51 134L51 156L0 156Z" fill="#6485b0"></path><path d="M0 330L51 330L51 347L101 347L101 314L152 314L152 336L202 336L202 314L253 314L253 347L303 347L303 374L354 374L354 341L404 341L404 357L455 357L455 336L505 336L505 357L556 357L556 336L606 336L606 368L657 368L657 298L707 298L707 363L758 363L758 379L808 379L808 309L859 309L859 314L909 314L909 276L960 276L960 379L960 274L960 231L909 231L909 237L859 237L859 231L808 231L808 334L758 334L758 274L707 274L707 264L657 264L657 323L606 323L606 291L556 291L556 274L505 274L505 274L455 274L455 312L404 312L404 253L354 253L354 312L303 312L303 264L253 264L253 226L202 226L202 237L152 237L152 231L101 231L101 264L51 264L51 226L0 226Z" fill="#4b7a9d"></path><path d="M0 363L51 363L51 363L101 363L101 341L152 341L152 357L202 357L202 347L253 347L253 363L303 363L303 401L354 401L354 363L404 363L404 374L455 374L455 352L505 352L505 395L556 395L556 357L606 357L606 395L657 395L657 314L707 314L707 379L758 379L758 395L808 395L808 336L859 336L859 357L909 357L909 309L960 309L960 406L960 377L960 274L909 274L909 312L859 312L859 307L808 307L808 377L758 377L758 361L707 361L707 296L657 296L657 366L606 366L606 334L556 334L556 355L505 355L505 334L455 334L455 355L404 355L404 339L354 339L354 372L303 372L303 345L253 345L253 312L202 312L202 334L152 334L152 312L101 312L101 345L51 345L51 328L0 328Z" fill="#346e8a"></path><path d="M0 438L51 438L51 406L101 406L101 401L152 401L152 428L202 428L202 401L253 401L253 390L303 390L303 428L354 428L354 428L404 428L404 406L455 406L455 406L505 406L505 417L556 417L556 379L606 379L606 433L657 433L657 374L707 374L707 422L758 422L758 417L808 417L808 395L859 395L859 422L909 422L909 368L960 368L960 444L960 404L960 307L909 307L909 355L859 355L859 334L808 334L808 393L758 393L758 377L707 377L707 312L657 312L657 393L606 393L606 355L556 355L556 393L505 393L505 350L455 350L455 372L404 372L404 361L354 361L354 399L303 399L303 361L253 361L253 345L202 345L202 355L152 355L152 339L101 339L101 361L51 361L51 361L0 361Z" fill="#206276"></path><path d="M0 465L51 465L51 422L101 422L101 449L152 449L152 455L202 455L202 455L253 455L253 417L303 417L303 460L354 460L354 465L404 465L404 444L455 444L455 455L505 455L505 465L556 465L556 428L606 428L606 476L657 476L657 428L707 428L707 444L758 444L758 455L808 455L808 417L859 417L859 471L909 471L909 411L960 411L960 471L960 442L960 366L909 366L909 420L859 420L859 393L808 393L808 415L758 415L758 420L707 420L707 372L657 372L657 431L606 431L606 377L556 377L556 415L505 415L505 404L455 404L455 404L404 404L404 426L354 426L354 426L303 426L303 388L253 388L253 399L202 399L202 426L152 426L152 399L101 399L101 404L51 404L51 436L0 436Z" fill="#0f5562"></path><path d="M0 492L51 492L51 449L101 449L101 503L152 503L152 514L202 514L202 498L253 498L253 465L303 465L303 487L354 487L354 509L404 509L404 498L455 498L455 476L505 476L505 509L556 509L556 482L606 482L606 509L657 509L657 482L707 482L707 498L758 498L758 482L808 482L808 465L859 465L859 498L909 498L909 471L960 471L960 503L960 469L960 409L909 409L909 469L859 469L859 415L808 415L808 453L758 453L758 442L707 442L707 426L657 426L657 474L606 474L606 426L556 426L556 463L505 463L505 453L455 453L455 442L404 442L404 463L354 463L354 458L303 458L303 415L253 415L253 453L202 453L202 453L152 453L152 447L101 447L101 420L51 420L51 463L0 463Z" fill="#03494f"></path><path d="M0 541L51 541L51 541L101 541L101 541L152 541L152 541L202 541L202 541L253 541L253 541L303 541L303 541L354 541L354 541L404 541L404 541L455 541L455 541L505 541L505 541L556 541L556 541L606 541L606 541L657 541L657 541L707 541L707 541L758 541L758 541L808 541L808 541L859 541L859 541L909 541L909 541L960 541L960 541L960 501L960 469L909 469L909 496L859 496L859 463L808 463L808 480L758 480L758 496L707 496L707 480L657 480L657 507L606 507L606 480L556 480L556 507L505 507L505 474L455 474L455 496L404 496L404 507L354 507L354 485L303 485L303 463L253 463L253 496L202 496L202 512L152 512L152 501L101 501L101 447L51 447L51 490L0 490Z" fill="#003c3c"></path></svg>